<?xml version="1.0" encoding="utf-8"?>
<!-- Generator: Adobe Illustrator 26.3.1, SVG Export Plug-In . SVG Version: 6.00 Build 0)  -->
<svg version="1.1" id="Layer_1" xmlns="http://www.w3.org/2000/svg" xmlns:xlink="http://www.w3.org/1999/xlink" x="0px" y="0px"
	 viewBox="0 0 506 506" style="enable-background:new 0 0 506 506;" xml:space="preserve">
<style type="text/css">
	.st0{fill-rule:evenodd;clip-rule:evenodd;fill:url(#SVGID_1_);}
	.st1{display:none;}
	.st2{display:inline;fill-rule:evenodd;clip-rule:evenodd;fill:#CCFC00;}
	.st3{fill:none;stroke:#000000;stroke-width:17;}
	.st4{fill-rule:evenodd;clip-rule:evenodd;}
	.st5{fill-rule:evenodd;clip-rule:evenodd;fill:#333333;}
	.st6{fill-rule:evenodd;clip-rule:evenodd;fill:#4D4D4D;}
	.st7{fill:none;stroke:#FFFFFF;stroke-width:40;stroke-miterlimit:10;}
</style>
<g>
	<g transform="translate(-11 -320)">
		<g transform="translate(20 322)">
			
				<linearGradient id="SVGID_1_" gradientUnits="userSpaceOnUse" x1="-52.9074" y1="671.537" x2="-51.9077" y2="670.5367" gradientTransform="matrix(476 0 0 -476 25184 319651.5625)">
				<stop  offset="0" style="stop-color:#FFFFFF;stop-opacity:0.2"/>
				<stop  offset="1" style="stop-color:#FFFFFF;stop-opacity:0"/>
			</linearGradient>
			<polygon class="st0" points="0,0 476,0 476,476 0,476 			"/>
			<g class="st1">
				<polygon id="c" class="st2" points="0,-2.9 476,-2.9 476,473.1 0,473.1 				"/>
			</g>
			<path class="st3" d="M8.5,8.5v459h459V8.5H8.5z"/>
			<g>
				<polygon id="b" class="st4" points="0,476 476,476 487,492 11,492 				"/>
			</g>
			<g>
				<polygon id="b_00000096741087466157801950000017817560130112717246_" class="st5" points="0,476 476,476 487,492 11,492 				"/>
			</g>
			<g>
				<polygon id="a" class="st4" points="476,0 487,16 487,492 476,476 				"/>
			</g>
			<g>
				<polygon id="a_00000028313056142983583140000008015007196681562242_" class="st6" points="476,0 487,16 487,492 476,476 				"/>
			</g>
		</g>
	</g>
</g>
<g>
	
		<image style="overflow:visible;opacity:0.75;" width="475" height="473" xlink:href="B64E061D.png"  transform="matrix(1 0 0 1 10 3)">
	</image>
	<g>
		<polygon class="st7" points="449.1,441 46.2,441 45.4,38.3 448.3,38.3 		"/>
	</g>
</g>
</svg>
